HIERARCHY
ROOT root
{
	OFFSET 0.000000 0.000000 0.000000
	CHANNELS 6 Xposition Yposition Zposition Zrotation Yrotation Xrotation
	JOINT lhip
	{
		OFFSET 0.058581 -0.082280 -0.017664
		CHANNELS 3 Zrotation Yrotation Xrotation
		JOINT lknee
		{
			OFFSET 0.043451 -0.386469 0.008037
			CHANNELS 3 Zrotation Yrotation Xrotation
			JOINT lankle
			{
				OFFSET -0.014790 -0.426874 -0.037428
				CHANNELS 3 Zrotation Yrotation Xrotation
				JOINT ltoe
				{
					OFFSET 0.041054 -0.060286 0.122042
					CHANNELS 3 Zrotation Yrotation Xrotation
					End Site
					{
						OFFSET 0.000000 0.000000 0.000000
					}
				}
			}
		}
	}
	JOINT rhip
	{
		OFFSET -0.060310 -0.090513 -0.013543
		CHANNELS 3 Zrotation Yrotation Xrotation
		JOINT rknee
		{
			OFFSET -0.043257 -0.383688 -0.004843
			CHANNELS 3 Zrotation Yrotation Xrotation
			JOINT rankle
			{
				OFFSET 0.019056 -0.420046 -0.034562
				CHANNELS 3 Zrotation Yrotation Xrotation
				JOINT rtoe
				{
					OFFSET -0.034840 -0.062106 0.130323
					CHANNELS 3 Zrotation Yrotation Xrotation
					End Site
					{
						OFFSET 0.000000 0.000000 0.000000
					}
				}
			}
		}
	}
	JOINT lowerback
	{
		OFFSET 0.004439 0.124404 -0.038385
		CHANNELS 3 Zrotation Yrotation Xrotation
		JOINT upperback
		{
			OFFSET 0.004488 0.137956 0.026820
			CHANNELS 3 Zrotation Yrotation Xrotation
			JOINT chest
			{
				OFFSET -0.002265 0.056032 0.002855
				CHANNELS 3 Zrotation Yrotation Xrotation
				JOINT lowerneck
				{
					OFFSET -0.013390 0.211636 -0.033468
					CHANNELS 3 Zrotation Yrotation Xrotation
					JOINT upperneck
					{
						OFFSET 0.010113 0.088937 0.050410
						CHANNELS 3 Zrotation Yrotation Xrotation
						End Site
						{
							OFFSET 0.000000 0.000000 0.000000
						}
					}
				}
				JOINT lclavicle
				{
					OFFSET 0.071702 0.114000 -0.018898
					CHANNELS 3 Zrotation Yrotation Xrotation
					JOINT lshoulder
					{
						OFFSET 0.122921 0.045205 -0.019046
						CHANNELS 3 Zrotation Yrotation Xrotation
						JOINT lelbow
						{
							OFFSET 0.255332 -0.015649 -0.022946
							CHANNELS 3 Zrotation Yrotation Xrotation
							JOINT lwrist
							{
								OFFSET 0.265709 0.012698 -0.007375
								CHANNELS 3 Zrotation Yrotation Xrotation
								End Site
								{
									OFFSET 0.000000 0.000000 0.000000
								}
							}
						}
					}
				}
				JOINT rclavicle
				{
					OFFSET -0.082954 0.112472 -0.023707
					CHANNELS 3 Zrotation Yrotation Xrotation
					JOINT rshoulder
					{
						OFFSET -0.113228 0.046853 -0.008472
						CHANNELS 3 Zrotation Yrotation Xrotation
						JOINT relbow
						{
							OFFSET -0.260127 -0.014369 -0.031269
							CHANNELS 3 Zrotation Yrotation Xrotation
							JOINT rwrist
							{
								OFFSET -0.269108 0.006794 -0.006027
								CHANNELS 3 Zrotation Yrotation Xrotation
								End Site
								{
									OFFSET 0.000000 0.000000 0.000000
								}
							}
						}
					}
				}
			}
		}
	}
}
MOTION
Frames: 14
Frame Time: 0.033333
0.364169 -0.446912 0.976574 90.064071 -1.946801 82.286263 -2.958461 -3.704692 -9.324151 -3.811126 -5.781647 5.305151 2.519209 5.951532 1.668364 0.000000 -0.000000 0.000000 -2.887961 -3.935990 9.845702 1.899335 1.865311 41.881909 8.121064 -1.424564 0.380560 0.000000 -0.000000 0.000000 0.889701 5.706340 14.513889 0.403780 1.039546 0.535900 -1.490284 1.878293 2.721939 0.266247 4.276522 8.104706 -2.953677 2.114274 15.462837 -26.976649 7.075629 1.087525 -58.899171 -2.494246 9.310737 9.276696 -24.365496 6.181077 -7.082585 -3.234944 -7.600343 27.707656 0.959164 3.124684 56.735577 9.144729 13.310603 -14.242161 18.017032 -10.394032 4.531193 3.615967 -6.513740 
0.386911 -0.443072 0.978148 90.464067 -2.045983 82.142251 -3.649029 -3.455767 -7.802753 -3.840298 -5.758861 5.126303 3.974019 6.264577 1.436461 0.000000 -0.000000 0.000000 -3.645382 -3.360862 5.426158 2.354921 0.597752 49.799096 7.376547 -3.576905 -1.174656 0.000000 -0.000000 0.000000 0.235340 4.954851 14.636703 0.700061 1.056099 0.523809 -1.564997 1.471211 2.739609 0.932826 5.036537 7.943396 -3.782994 2.326969 15.963324 -26.680899 6.882634 1.473918 -58.095158 -2.709067 9.411234 8.707814 -25.831091 6.730179 -7.121585 -3.485011 -8.110835 28.244774 1.636646 3.031963 56.022586 9.773179 13.822074 -14.525968 19.283951 -11.106863 4.264066 3.722733 -6.606550 
0.408616 -0.439839 0.982102 91.140806 -1.737878 81.296434 -3.964170 -2.511240 -5.430287 -3.694688 -6.881854 5.235995 4.148500 6.240942 0.626824 0.000000 -0.000000 0.000000 -3.803933 -3.385188 2.626656 -0.123745 -2.052511 54.351528 5.776295 -6.802502 -5.317586 0.000000 -0.000000 0.000000 0.141900 3.799692 15.262407 0.808665 1.121077 0.641162 -1.426104 1.164978 3.115302 1.117211 5.548097 7.904488 -4.450043 2.555713 16.519974 -26.878637 6.205882 1.466355 -56.910897 -3.611165 9.044336 8.002381 -26.455800 7.009265 -7.705645 -3.404832 -7.241114 28.700512 2.251569 2.176338 55.440545 10.593060 13.896057 -14.874170 20.491389 -11.252894 4.726317 3.920993 -5.176060 
0.427081 -0.438123 0.988098 92.021304 -1.196136 81.022612 -3.685099 -1.905996 -3.501758 -3.601410 -8.108904 4.619068 3.721716 5.979711 0.061026 0.000000 -0.000000 0.000000 -3.400849 -3.339562 -0.306402 -2.695946 -4.274299 56.178732 4.603204 -9.623574 -7.593637 0.000000 -0.000000 0.000000 0.218247 2.567075 15.976534 0.905291 1.043646 0.185601 -1.306199 0.728924 2.957274 1.233181 5.892618 8.384586 -5.160878 2.962714 16.862376 -26.728468 5.838408 1.779422 -56.365405 -4.512731 8.641618 8.715725 -27.238879 6.515077 -7.604764 -3.296831 -6.820460 28.805407 2.632508 1.688157 55.645477 11.111430 14.228590 -15.636877 22.032358 -11.647738 4.787060 4.196649 -5.110379 
0.443453 -0.436860 0.993733 93.031861 -0.735840 81.173257 -3.485895 -1.220429 -2.495224 -3.471549 -8.595305 4.326179 3.351478 5.539975 -0.012949 0.000000 -0.000000 0.000000 -2.819569 -2.628600 -3.179323 -3.647661 -5.814981 55.374524 3.365512 -10.653636 -10.038304 0.000000 -0.000000 0.000000 0.226556 1.689776 16.190787 1.051511 1.003840 0.030885 -1.166203 0.434446 2.587256 1.171912 6.039424 9.116081 -5.146708 2.700168 17.004022 -26.022110 5.370218 2.357743 -56.530832 -5.444144 8.332050 9.851360 -28.959621 5.277722 -6.906129 -3.092344 -7.884506 28.268892 2.975507 1.899416 56.443235 11.493012 14.100699 -16.342203 23.513423 -12.186325 4.536762 3.965074 -6.555657 
0.459398 -0.437344 0.998267 94.087985 -0.099465 81.133155 -2.858086 -0.701632 -1.056543 -3.577705 -9.132926 3.466989 2.747773 5.561495 -0.328188 0.000000 -0.000000 0.000000 -1.972052 -1.850463 -5.363875 -3.350647 -6.740150 52.296018 3.501640 -10.707861 -13.426821 0.000000 -0.000000 0.000000 0.150263 0.823879 16.554870 1.260229 0.897806 0.029921 -0.924252 0.290289 2.435262 1.369468 6.528843 8.913190 -4.913433 2.068398 17.109667 -25.318780 4.979994 2.671639 -56.319237 -6.299780 8.264691 10.532464 -31.133154 3.178775 -5.465034 -3.255325 -9.243427 28.191564 3.516949 2.098522 56.485153 11.590327 14.179570 -17.190035 25.577971 -12.479019 4.144446 3.997616 -7.007141 
0.472920 -0.438171 1.001066 94.981993 0.419109 81.247793 -2.371538 -0.666655 -0.012983 -3.226364 -10.538379 3.011232 2.371083 5.321657 -1.079564 0.000000 -0.000000 0.000000 -1.360513 -1.298511 -7.153727 -1.922436 -6.690287 47.350747 3.802052 -9.165205 -15.450235 0.000000 -0.000000 0.000000 0.031981 0.326968 16.930548 1.407913 0.658387 0.128721 -0.532605 0.115776 2.244583 1.445479 6.897340 8.528334 -4.858491 1.796957 16.931093 -24.939302 4.380089 2.613013 -55.722293 -7.031717 8.303647 11.267650 -33.466037 1.334927 -4.823868 -4.183923 -10.072732 27.772423 4.089793 2.197894 56.686460 11.882173 14.267732 -17.681718 27.604814 -12.330810 4.136798 4.515033 -7.222992 
0.485643 -0.439954 1.002502 96.113946 0.982549 81.385819 -1.587280 -0.652218 0.654110 -3.372983 -11.195372 2.997535 1.763910 5.082221 -1.717278 0.000000 -0.000000 0.000000 -0.705368 -0.651213 -7.903322 -0.511476 -6.230490 40.935727 4.075691 -6.990987 -16.630822 0.000000 -0.000000 0.000000 -0.159014 -0.048053 17.535827 1.645064 0.337413 0.013475 -0.112829 -0.068699 1.970907 1.450496 7.086964 8.190910 -4.623117 1.067496 17.082759 -24.652179 4.056589 2.537094 -55.202787 -7.855439 8.431932 12.164211 -35.829438 -0.271272 -3.390218 -4.603010 -10.363661 27.944266 4.310351 1.951307 56.342006 11.955864 14.597849 -17.928209 29.634087 -11.168162 3.655921 4.901376 -6.325604 
0.497104 -0.442411 1.003029 97.169412 1.110619 81.837323 -1.274333 -0.919320 0.709762 -3.502274 -11.527743 3.358455 1.463972 4.665336 -2.524689 0.000000 -0.000000 0.000000 -0.449017 -0.258136 -8.596039 1.088788 -4.557529 34.850830 4.767297 -5.217831 -17.012403 0.000000 -0.000000 0.000000 -0.628254 0.042746 17.387346 1.850238 -0.054101 0.080052 0.151577 -0.263076 1.947602 1.698741 7.565378 7.913559 -4.518972 0.374314 17.206975 -24.169298 3.883924 2.131933 -54.864242 -8.849389 8.692696 13.492621 -37.455016 -1.643373 -3.468878 -5.030833 -10.359983 27.912794 4.389620 1.535776 56.508404 12.372477 15.110885 -18.104377 30.649891 -10.571508 3.898341 5.210909 -6.027118 
0.508768 -0.445578 1.003308 98.254221 1.336664 82.066538 -0.718921 -1.029626 0.840584 -3.762952 -12.346456 3.947063 1.104781 4.223821 -3.071511 0.000000 -0.000000 0.000000 0.144875 0.663693 -8.501804 1.708901 -2.133752 29.462004 5.490515 -2.936284 -16.605306 0.000000 -0.000000 0.000000 -0.774999 0.039583 17.160951 1.962545 -0.329157 0.128353 0.286057 -0.366288 1.977180 1.765953 7.675331 8.479965 -4.339071 -0.021746 17.213644 -23.874112 3.576901 2.004283 -54.590429 -9.853620 8.716432 14.612673 -38.438533 -3.650323 -2.060540 -5.356590 -10.929943 27.876651 4.541682 1.515966 56.683494 12.739379 15.404231 -17.990812 31.012056 -10.031947 3.557083 5.176022 -6.103788 
0.520551 -0.448812 1.003946 99.026702 1.259481 81.957558 -0.570234 -1.470713 1.315430 -3.877837 -12.859752 4.628500 0.893338 4.179943 -3.847409 0.000000 -0.000000 0.000000 0.531095 2.001643 -7.604416 1.575419 0.773503 25.310042 6.005771 -1.440201 -14.846863 0.000000 -0.000000 0.000000 -0.988463 0.145796 16.914076 1.934897 -0.414512 0.608141 0.243282 -0.201918 1.801065 1.608924 7.745255 8.944869 -3.934349 -0.065740 17.388523 -23.650878 3.251812 2.162878 -54.500904 -10.656122 8.771789 16.021816 -39.043016 -5.256758 -1.287638 -5.219930 -11.673990 27.815390 4.832267 1.599812 57.136837 12.881928 15.643609 -18.068383 30.561365 -10.168144 3.346354 4.917925 -6.896049 
0.531636 -0.452078 1.003964 100.038771 1.163204 81.879820 -0.575024 -2.009997 1.885244 -3.833551 -13.555580 4.949672 1.121617 4.213181 -4.339466 0.000000 -0.000000 0.000000 0.510731 2.537846 -7.123393 1.544983 2.622687 24.013143 6.453740 -0.459617 -9.573076 0.000000 -0.000000 0.000000 -0.910832 0.110000 16.592828 1.762650 -0.329804 0.838493 0.031870 -0.089477 1.708583 1.265450 7.371450 9.522412 -3.621996 0.200990 17.351109 -23.708155 3.171509 2.327418 -54.391582 -10.925369 8.870393 17.509837 -39.995496 -7.096513 -0.444370 -5.499067 -12.574663 27.831753 4.990882 2.124491 57.511420 13.048226 15.741575 -18.196684 30.017250 -10.942814 3.308993 4.567305 -7.532959 
0.541434 -0.455169 1.003939 101.521204 0.983979 82.031694 -0.713451 -2.735712 1.607454 -3.971604 -14.212382 6.221443 1.073049 4.026068 -5.033369 0.000000 -0.000000 0.000000 0.246131 2.651420 -6.318003 1.698501 3.244999 23.319194 5.444116 -0.218823 -8.775915 0.000000 -0.000000 0.000000 -0.708401 0.000545 16.544640 1.605057 -0.473716 0.486067 -0.188913 -0.028744 1.623894 0.980308 7.627315 9.744217 -3.593488 0.837817 17.685964 -23.925368 3.620797 2.254079 -54.475806 -10.952147 8.943226 17.875664 -40.496341 -7.290525 -0.487510 -5.669499 -13.334049 27.808268 4.979454 2.159631 57.657139 12.828950 16.116966 -17.638853 29.312642 -9.858427 3.638322 4.439237 -7.145741 
0.551043 -0.459013 1.004038 103.315111 0.772117 82.002217 -0.734264 -2.948171 1.772910 -4.099290 -15.031900 6.780621 0.792524 3.378989 -5.509822 0.000000 -0.000000 0.000000 0.100016 1.370341 -4.502234 1.733841 2.714080 21.764112 5.077161 -0.175062 -9.496396 0.000000 -0.000000 0.000000 -0.253748 0.298546 16.270301 1.316447 -0.651197 0.541191 -0.387831 -0.168196 2.025688 0.833133 8.073409 9.156866 -3.841616 1.298133 17.849192 -24.237530 3.897847 1.864331 -54.581586 -10.995641 8.928980 17.439467 -40.952479 -6.398715 -0.387875 -6.035507 -13.742946 28.083861 4.487784 1.685928 57.550908 12.575099 16.196011 -16.859222 29.075101 -8.703905 3.268973 4.744326 -6.850137 
